<svg width="135" height="240" viewBox="0 0 135 240" fill="none" xmlns="http://www.w3.org/2000/svg">
<path d="M39.2215 160C36.3202 161.707 33.7602 161.92 31.5415 160.64C29.3228 159.36 28.2135 157.013 28.2135 153.6V192L17.0775 198.4V103.68L55.8615 81.28C58.7628 79.5733 61.3228 79.36 63.5415 80.64C65.8455 81.92 66.9975 84.2667 66.9975 87.68V131.2C66.9975 133.419 66.4428 135.808 65.3335 138.368C64.3095 140.928 62.9442 143.317 61.2375 145.536C59.6162 147.669 57.8242 149.291 55.8615 150.4L39.2215 160ZM55.8615 94.08L28.2135 110.08V153.6L55.8615 137.6V94.08ZM28.2135 153.6C28.2135 157.013 29.3228 159.36 31.5415 160.64L20.4055 154.24C18.1868 152.96 17.0775 150.613 17.0775 147.2L28.2135 153.6ZM55.8615 94.08V137.6L44.7255 131.2V87.68L55.8615 94.08ZM55.8615 137.6L28.2135 153.6L17.0775 147.2L44.7255 131.2L55.8615 137.6ZM63.6695 80.64C61.3655 79.36 58.7628 79.5733 55.8615 81.28L17.0775 103.68L5.9415 97.28L44.7255 74.88C47.7122 73.1733 50.3148 72.96 52.5335 74.24L63.6695 80.64ZM17.0775 103.68V198.4L5.9415 192V97.28L17.0775 103.68Z" fill="white"/>
<path d="M76.483 80.08L56.515 91.6V78.8L107.459 49.36V62.16L87.491 73.68V162L76.483 168.4V80.08ZM76.483 80.08V168.4L65.347 162V73.68L76.483 80.08ZM107.459 49.36L56.515 78.8L45.379 72.4L96.451 42.96L107.459 49.36ZM56.515 78.8V91.6L45.379 85.2V72.4L56.515 78.8Z" fill="#D43F3F"/>
</svg>
