<svg width="394" height="368" viewBox="0 0 394 368" fill="none" xmlns="http://www.w3.org/2000/svg">
<path d="M39.0965 200C36.1952 201.707 33.6352 201.92 31.4165 200.64C29.1978 199.36 28.0885 197.013 28.0885 193.6V232L16.9525 238.4V143.68L55.7365 121.28C58.6378 119.573 61.1978 119.36 63.4165 120.64C65.7205 121.92 66.8725 124.267 66.8725 127.68V171.2C66.8725 173.419 66.3178 175.808 65.2085 178.368C64.1845 180.928 62.8192 183.317 61.1125 185.536C59.4912 187.669 57.6992 189.291 55.7365 190.4L39.0965 200ZM55.7365 134.08L28.0885 150.08V193.6L55.7365 177.6V134.08ZM28.0885 193.6C28.0885 197.013 29.1978 199.36 31.4165 200.64L20.2805 194.24C18.0618 192.96 16.9525 190.613 16.9525 187.2L28.0885 193.6ZM55.7365 134.08V177.6L44.6005 171.2V127.68L55.7365 134.08ZM55.7365 177.6L28.0885 193.6L16.9525 187.2L44.6005 171.2L55.7365 177.6ZM63.5445 120.64C61.2405 119.36 58.6378 119.573 55.7365 121.28L16.9525 143.68L5.8165 137.28L44.6005 114.88C47.5872 113.173 50.1898 112.96 52.4085 114.24L63.5445 120.64ZM16.9525 143.68V238.4L5.8165 232V137.28L16.9525 143.68ZM89.0775 174.4L100.214 168V180.8L111.222 174.4C111.222 172.096 111.734 169.707 112.758 167.232C113.782 164.672 115.147 162.325 116.854 160.192C118.56 157.973 120.395 156.309 122.358 155.2L133.366 148.8V161.6L122.358 168C122.358 170.219 121.846 172.608 120.822 175.168C119.798 177.728 118.432 180.117 116.726 182.336C115.019 184.469 113.184 186.091 111.222 187.2L100.214 193.6V232L89.0775 238.4V174.4ZM89.0775 174.4V238.4L77.9415 232V168L89.0775 174.4ZM133.366 148.8L122.358 155.2C120.395 156.309 118.56 157.973 116.854 160.192C115.147 162.325 113.782 164.672 112.758 167.232C111.734 169.707 111.222 172.096 111.222 174.4L100.214 168C100.214 165.696 100.726 163.307 101.75 160.832C102.774 158.272 104.096 155.925 105.718 153.792C107.424 151.573 109.259 149.909 111.222 148.8L122.358 142.4L133.366 148.8ZM111.222 174.4L100.214 180.8L89.0775 174.4L100.214 168L111.222 174.4ZM100.214 168L89.0775 174.4L77.9415 168L89.0775 161.6L100.214 168ZM161.089 162.88L183.233 150.08C186.134 148.373 188.694 148.16 190.913 149.44C193.131 150.72 194.241 153.067 194.241 156.48V205.12C194.241 207.339 193.729 209.728 192.705 212.288C191.681 214.848 190.315 217.237 188.609 219.456C186.987 221.589 185.195 223.211 183.233 224.32L161.089 237.12C158.102 238.827 155.499 239.04 153.281 237.76C151.062 236.48 149.953 234.133 149.953 230.72V182.08C149.953 179.776 150.465 177.387 151.489 174.912C152.513 172.352 153.878 170.005 155.585 167.872C157.291 165.653 159.126 163.989 161.089 162.88ZM161.089 224.32L183.233 211.52V162.88L161.089 175.68V224.32ZM183.233 162.88V211.52L172.097 205.12V156.48L183.233 162.88ZM183.233 211.52L161.089 224.32L149.953 217.92L172.097 205.12L183.233 211.52ZM190.913 149.44C188.694 148.16 186.134 148.373 183.233 150.08L161.089 162.88C159.126 163.989 157.291 165.653 155.585 167.872C153.878 170.005 152.513 172.352 151.489 174.912C150.465 177.387 149.953 179.776 149.953 182.08V230.72C149.953 234.133 151.062 236.48 153.281 237.76L142.145 231.36C139.926 230.08 138.817 227.733 138.817 224.32V175.68C138.817 173.376 139.329 170.987 140.353 168.512C141.377 165.952 142.742 163.605 144.449 161.472C146.155 159.253 147.99 157.589 149.953 156.48L172.097 143.68C175.083 141.973 177.686 141.76 179.905 143.04L190.913 149.44ZM238.597 156.48L249.733 150.08C252.634 148.373 255.194 148.16 257.413 149.44C259.631 150.72 260.741 153.067 260.741 156.48V200C260.741 202.219 260.229 204.608 259.205 207.168C258.181 209.728 256.815 212.117 255.109 214.336C253.487 216.469 251.695 218.091 249.733 219.2L227.589 232V248.64L216.453 255.04V169.28L227.589 162.88V175.68C227.589 173.376 228.101 170.987 229.125 168.512C230.149 165.952 231.471 163.605 233.093 161.472C234.799 159.253 236.634 157.589 238.597 156.48ZM249.733 162.88L227.589 175.68V219.2L249.733 206.4V162.88ZM249.733 162.88V206.4L238.597 200V156.48L249.733 162.88ZM249.733 206.4L227.589 219.2L216.453 212.8L238.597 200L249.733 206.4ZM257.413 149.44C255.194 148.16 252.634 148.373 249.733 150.08L238.597 156.48C236.634 157.589 234.799 159.253 233.093 161.472C231.471 163.605 230.149 165.952 229.125 168.512C228.101 170.987 227.589 173.376 227.589 175.68L216.453 169.28C216.453 166.976 216.965 164.587 217.989 162.112C219.013 159.552 220.378 157.205 222.085 155.072C223.791 152.853 225.626 151.189 227.589 150.08L238.597 143.68C241.583 141.973 244.186 141.76 246.405 143.04L257.413 149.44ZM216.453 169.28V255.04L205.317 248.64V162.88L216.453 169.28ZM227.589 162.88L216.453 169.28L205.317 162.88L216.453 156.48L227.589 162.88ZM349.453 174.4L360.589 168V180.8L371.597 174.4C371.597 172.096 372.109 169.707 373.133 167.232C374.157 164.672 375.522 162.325 377.229 160.192C378.935 157.973 380.77 156.309 382.733 155.2L393.741 148.8V161.6L382.733 168C382.733 170.219 382.221 172.608 381.197 175.168C380.173 177.728 378.807 180.117 377.101 182.336C375.394 184.469 373.559 186.091 371.597 187.2L360.589 193.6V232L349.453 238.4V174.4ZM349.453 174.4V238.4L338.317 232V168L349.453 174.4ZM393.741 148.8L382.733 155.2C380.77 156.309 378.935 157.973 377.229 160.192C375.522 162.325 374.157 164.672 373.133 167.232C372.109 169.707 371.597 172.096 371.597 174.4L360.589 168C360.589 165.696 361.101 163.307 362.125 160.832C363.149 158.272 364.471 155.925 366.093 153.792C367.799 151.573 369.634 149.909 371.597 148.8L382.733 142.4L393.741 148.8ZM371.597 174.4L360.589 180.8L349.453 174.4L360.589 168L371.597 174.4ZM360.589 168L349.453 174.4L338.317 168L349.453 161.6L360.589 168Z" fill="white"/>
<path d="M294.089 162.88L316.233 150.08C319.134 148.373 321.694 148.16 323.913 149.44C326.131 150.72 327.241 153.067 327.241 156.48V175.68C327.241 177.899 326.729 180.288 325.705 182.848C324.681 185.408 323.315 187.797 321.609 190.016C319.987 192.149 318.195 193.771 316.233 194.88L305.097 201.28C302.195 202.987 299.635 203.2 297.417 201.92C295.198 200.64 294.089 198.293 294.089 194.88V224.32L327.241 205.12V217.92L294.089 237.12C291.102 238.827 288.499 239.04 286.281 237.76C284.062 236.48 282.953 234.133 282.953 230.72V182.08C282.953 179.776 283.465 177.387 284.489 174.912C285.513 172.352 286.878 170.005 288.585 167.872C290.291 165.653 292.126 163.989 294.089 162.88ZM316.233 162.88L294.089 175.68V194.88L316.233 182.08V162.88ZM327.241 205.12L294.089 224.32L282.953 217.92L316.233 198.72L327.241 205.12ZM316.233 162.88V182.08L305.097 175.68V156.48L316.233 162.88ZM294.089 194.88C294.089 198.293 295.198 200.64 297.417 201.92L286.281 195.52C284.062 194.24 282.953 191.893 282.953 188.48L294.089 194.88ZM316.233 182.08L294.089 194.88L282.953 188.48L305.097 175.68L316.233 182.08ZM323.913 149.44C321.694 148.16 319.134 148.373 316.233 150.08L294.089 162.88C292.126 163.989 290.291 165.653 288.585 167.872C286.878 170.005 285.513 172.352 284.489 174.912C283.465 177.387 282.953 179.776 282.953 182.08V230.72C282.953 234.133 284.062 236.48 286.281 237.76L275.145 231.36C272.926 230.08 271.817 227.733 271.817 224.32V175.68C271.817 173.376 272.329 170.987 273.353 168.512C274.377 165.952 275.742 163.605 277.449 161.472C279.155 159.253 280.99 157.589 282.953 156.48L305.097 143.68C308.083 141.973 310.686 141.76 312.905 143.04L323.913 149.44Z" fill="#D43F3F"/>
<path d="M315.483 80.08L295.515 91.6V78.8L346.459 49.36V62.16L326.491 73.68V162L315.483 168.4V80.08ZM315.483 80.08V168.4L304.347 162V73.68L315.483 80.08ZM346.459 49.36L295.515 78.8L284.379 72.4L335.451 42.96L346.459 49.36ZM295.515 78.8V91.6L284.379 85.2V72.4L295.515 78.8Z" fill="#D43F3F"/>
<path d="M297.026 250.88L319.17 238.08C322.071 236.373 324.631 236.16 326.85 237.44C329.069 238.72 330.178 241.067 330.178 244.48V263.68C330.178 265.899 329.666 268.288 328.642 270.848C327.618 273.408 326.253 275.797 324.546 278.016C322.925 280.149 321.133 281.771 319.17 282.88L308.034 289.28C305.133 290.987 302.573 291.2 300.354 289.92C298.135 288.64 297.026 286.293 297.026 282.88V312.32L330.178 293.12V305.92L297.026 325.12C294.039 326.827 291.437 327.04 289.218 325.76C286.999 324.48 285.89 322.133 285.89 318.72V270.08C285.89 267.776 286.402 265.387 287.426 262.912C288.45 260.352 289.815 258.005 291.522 255.872C293.229 253.653 295.063 251.989 297.026 250.88ZM319.17 250.88L297.026 263.68V282.88L319.17 270.08V250.88ZM330.178 293.12L297.026 312.32L285.89 305.92L319.17 286.72L330.178 293.12ZM319.17 250.88V270.08L308.034 263.68V244.48L319.17 250.88ZM297.026 282.88C297.026 286.293 298.135 288.64 300.354 289.92L289.218 283.52C286.999 282.24 285.89 279.893 285.89 276.48L297.026 282.88ZM319.17 270.08L297.026 282.88L285.89 276.48L308.034 263.68L319.17 270.08ZM326.85 237.44C324.631 236.16 322.071 236.373 319.17 238.08L297.026 250.88C295.063 251.989 293.229 253.653 291.522 255.872C289.815 258.005 288.45 260.352 287.426 262.912C286.402 265.387 285.89 267.776 285.89 270.08V318.72C285.89 322.133 286.999 324.48 289.218 325.76L278.082 319.36C275.863 318.08 274.754 315.733 274.754 312.32V263.68C274.754 261.376 275.266 258.987 276.29 256.512C277.314 253.952 278.679 251.605 280.386 249.472C282.093 247.253 283.927 245.589 285.89 244.48L308.034 231.68C311.021 229.973 313.623 229.76 315.842 231.04L326.85 237.44Z" fill="#D43F3F"/>
</svg>
